  0
SECTION
  2
HEADER
  9
$ACADVER
  1
AC1014
  9
$HANDSEED
  5
FFFF
  9
$MEASUREMENT
 70
     1
  0
ENDSEC
  0
SECTION
  2
TABLES
  0
TABLE
  2
VPORT
  5
8
330
0
100
AcDbSymbolTable
 70
     4
  0
VPORT
  5
2E
330
8
100
AcDbSymbolTableRecord
100
AcDbViewportTableRecord
  2
*ACTIVE
 70
     0
 10
0.0
 20
0.0
 11
1.0
 21
1.0
 12
210.0
 22
148.5
 13
0.0
 23
0.0
 14
10.0
 24
10.0
 15
10.0
 25
10.0
 16
0.0
 26
0.0
 36
1.0
 17
0.0
 27
0.0
 37
0.0
 40
341.0
 41
1.24
 42
50.0
 43
0.0
 44
0.0
 50
0.0
 51
0.0
 71
     0
 72
   100
 73
     1
 74
     3
 75
     0
 76
     0
 77
     0
 78
     0
  0
ENDTAB
  0
TABLE
  2
LTYPE
  5
5
330
0
100
AcDbSymbolTable
 70
     1
  0
LTYPE
  5
14
330
5
100
AcDbSymbolTableRecord
100
AcDbLinetypeTableRecord
  2
BYBLOCK
 70
     0
  3

 72
    65
 73
     0
 40
0.0
  0
LTYPE
  5
15
330
5
100
AcDbSymbolTableRecord
100
AcDbLinetypeTableRecord
  2
BYLAYER
 70
     0
  3

 72
    65
 73
     0
 40
0.0
  0
LTYPE
  5
16
330
5
100
AcDbSymbolTableRecord
100
AcDbLinetypeTableRecord
  2
CONTINUOUS
 70
     0
  3
Solid line
 72
    65
 73
     0
 40
0.0
  0
ENDTAB
  0
TABLE
  2
LAYER
  5
2
100
AcDbSymbolTable
 70
2
  0
LAYER
  5
50
100
AcDbSymbolTableRecord
100
AcDbLayerTableRecord
  2
0
 70
0
  6
CONTINUOUS
  0
LAYER
  5
51
100
AcDbSymbolTableRecord
100
AcDbLayerTableRecord
  2
Qwiic_Keyboard_Explorer
 70
0
  6
CONTINUOUS
  0
ENDTAB
  0
TABLE
  2
STYLE
  5
3
330
0
100
AcDbSymbolTable
 70
     1
  0
STYLE
  5
11
330
3
100
AcDbSymbolTableRecord
100
AcDbTextStyleTableRecord
  2
STANDARD
 70
     0
 40
0.0
 41
1.0
 50
0.0
 71
     0
 42
2.5
  3
txt
  4

  0
ENDTAB
  0
TABLE
  2
VIEW
  5
6
330
0
100
AcDbSymbolTable
 70
     0
  0
ENDTAB
  0
TABLE
  2
UCS
  5
7
330
0
100
AcDbSymbolTable
 70
     0
  0
ENDTAB
  0
TABLE
  2
APPID
  5
9
330
0
100
AcDbSymbolTable
 70
     2
  0
APPID
  5
12
330
9
100
AcDbSymbolTableRecord
100
AcDbRegAppTableRecord
  2
ACAD
 70
     0
  0
ENDTAB
  0
TABLE
  2
DIMSTYLE
  5
A
330
0
100
AcDbSymbolTable
 70
     1
  0
DIMSTYLE
105
27
330
A
100
AcDbSymbolTableRecord
100
AcDbDimStyleTableRecord
  2
ISO-25
 70
     0
  3

  4

  5

  6

  7

 40
1.0
 41
2.5
 42
0.625
 43
3.75
 44
1.25
 45
0.0
 46
0.0
 47
0.0
 48
0.0
140
2.5
141
2.5
142
0.0
143
0.03937007874016
144
1.0
145
0.0
146
1.0
147
0.625
 71
     0
 72
     0
 73
     0
 74
     0
 75
     0
 76
     0
 77
     1
 78
     8
170
     0
171
     3
172
     1
173
     0
174
     0
175
     0
176
     0
177
     0
178
     0
270
     2
271
     2
272
     2
273
     2
274
     3
340
11
275
     0
280
     0
281
     0
282
     0
283
     0
284
     8
285
     0
286
     0
287
     3
288
     0
  0
ENDTAB
  0
TABLE
  2
BLOCK_RECORD
  5
1
330
0
100
AcDbSymbolTable
 70
     1
  0
BLOCK_RECORD
  5
1F
330
1
100
AcDbSymbolTableRecord
100
AcDbBlockTableRecord
  2
*MODEL_SPACE
  0
BLOCK_RECORD
  5
1B
330
1
100
AcDbSymbolTableRecord
100
AcDbBlockTableRecord
  2
*PAPER_SPACE
  0
ENDTAB
  0
ENDSEC
  0
SECTION
  2
BLOCKS
  0
BLOCK
  5
20
330
1F
100
AcDbEntity
  8
0
100
AcDbBlockBegin
  2
*MODEL_SPACE
 70
     0
 10
0.0
 20
0.0
 30
0.0
  3
*MODEL_SPACE
  1

  0
ENDBLK
  5
21
330
1F
100
AcDbEntity
  8
0
100
AcDbBlockEnd
  0
BLOCK
  5
1C
330
1B
100
AcDbEntity
 67
     1
  8
0
100
AcDbBlockBegin
  2
*PAPER_SPACE
  1

  0
ENDBLK
  5
1D
330
1B
100
AcDbEntity
 67
     1
  8
0
100
AcDbBlockEnd
  0
ENDSEC
  0
SECTION
  2
ENTITIES
  0
LWPOLYLINE
  5
100
100
AcDbEntity
  8
Qwiic_Keyboard_Explorer
 62
1
100
AcDbPolyline
 90
3
 70
0
 10
0.077285
 20
48.315142
 30
0.0
 10
143.544948
 20
48.315142
 30
0.0
 10
143.544948
 20
2.616310
 30
0.0
  0
LWPOLYLINE
  5
101
100
AcDbEntity
  8
Qwiic_Keyboard_Explorer
 62
1
100
AcDbPolyline
 90
2
 70
0
 10
141.004948
 20
0.076310
 30
0.0
 10
2.617285
 20
0.076310
 30
0.0
  0
LWPOLYLINE
  5
102
100
AcDbEntity
  8
Qwiic_Keyboard_Explorer
 62
1
100
AcDbPolyline
 90
6
 70
0
 10
0.077285
 20
2.616310
 30
0.0
 10
0.077285
 20
17.856309
 30
0.0
 10
5.157285
 20
17.856309
 30
0.0
 10
5.157285
 20
30.535142
 30
0.0
 10
0.077285
 20
30.535142
 30
0.0
 10
0.077285
 20
48.315142
 30
0.0
  0
LWPOLYLINE
  5
103
100
AcDbEntity
  8
Qwiic_Keyboard_Explorer
 62
1
100
AcDbPolyline
 90
10
 70
0
 10
0.077285
 20
2.616310
 30
0.0
 10
0.119619
 20
2.171810
 30
0.0
 10
0.225452
 20
1.748476
 30
0.0
 10
0.415952
 20
1.346310
 30
0.0
 10
0.669952
 20
0.986476
 30
0.0
 10
0.987452
 20
0.668976
 30
0.0
 10
1.347285
 20
0.414976
 30
0.0
 10
1.749452
 20
0.224476
 30
0.0
 10
2.172785
 20
0.118643
 30
0.0
 10
2.617285
 20
0.076310
 30
0.0
  0
LWPOLYLINE
  5
104
100
AcDbEntity
  8
Qwiic_Keyboard_Explorer
 62
1
100
AcDbPolyline
 90
10
 70
0
 10
141.004948
 20
0.076310
 30
0.0
 10
141.449448
 20
0.118643
 30
0.0
 10
141.872781
 20
0.224476
 30
0.0
 10
142.274948
 20
0.414976
 30
0.0
 10
142.634781
 20
0.668976
 30
0.0
 10
142.952281
 20
0.986476
 30
0.0
 10
143.206281
 20
1.346310
 30
0.0
 10
143.396781
 20
1.748476
 30
0.0
 10
143.502614
 20
2.171810
 30
0.0
 10
143.544948
 20
2.616310
 30
0.0
  0
LWPOLYLINE
  5
105
100
AcDbEntity
  8
Qwiic_Keyboard_Explorer
 62
1
100
AcDbPolyline
 90
28
 70
1
 10
21.688451
 20
26.703976
 30
0.0
 10
21.688451
 20
27.698809
 30
0.0
 10
22.492785
 20
27.698809
 30
0.0
 10
22.492785
 20
30.704476
 30
0.0
 10
22.386951
 20
30.789142
 30
0.0
 10
21.794285
 20
30.789142
 30
0.0
 10
21.688451
 20
30.894976
 30
0.0
 10
21.688451
 20
36.504142
 30
0.0
 10
21.794285
 20
36.588809
 30
0.0
 10
22.386951
 20
36.588809
 30
0.0
 10
22.492785
 20
36.694642
 30
0.0
 10
22.492785
 20
39.700309
 30
0.0
 10
21.688451
 20
39.700309
 30
0.0
 10
21.688451
 20
40.695142
 30
0.0
 10
7.697285
 20
40.695142
 30
0.0
 10
7.697285
 20
39.700309
 30
0.0
 10
6.892952
 20
39.700309
 30
0.0
 10
6.892952
 20
36.694642
 30
0.0
 10
6.998785
 20
36.588809
 30
0.0
 10
7.591452
 20
36.588809
 30
0.0
 10
7.697285
 20
36.504142
 30
0.0
 10
7.697285
 20
30.894976
 30
0.0
 10
7.591452
 20
30.789142
 30
0.0
 10
6.998785
 20
30.789142
 30
0.0
 10
6.892952
 20
30.704476
 30
0.0
 10
6.892952
 20
27.698809
 30
0.0
 10
7.697285
 20
27.698809
 30
0.0
 10
7.697285
 20
26.703976
 30
0.0
  0
LWPOLYLINE
  5
106
100
AcDbEntity
  8
Qwiic_Keyboard_Explorer
 62
1
100
AcDbPolyline
 90
28
 70
1
 10
40.759617
 20
26.703976
 30
0.0
 10
40.759617
 20
27.698809
 30
0.0
 10
41.542783
 20
27.698809
 30
0.0
 10
41.542783
 20
30.704476
 30
0.0
 10
41.458117
 20
30.789142
 30
0.0
 10
40.844283
 20
30.789142
 30
0.0
 10
40.759617
 20
30.894976
 30
0.0
 10
40.759617
 20
36.504142
 30
0.0
 10
40.844283
 20
36.588809
 30
0.0
 10
41.458117
 20
36.588809
 30
0.0
 10
41.542783
 20
36.694642
 30
0.0
 10
41.542783
 20
39.700309
 30
0.0
 10
40.759617
 20
39.700309
 30
0.0
 10
40.759617
 20
40.695142
 30
0.0
 10
26.747285
 20
40.695142
 30
0.0
 10
26.747285
 20
39.700309
 30
0.0
 10
25.964118
 20
39.700309
 30
0.0
 10
25.964118
 20
36.694642
 30
0.0
 10
26.048785
 20
36.588809
 30
0.0
 10
26.662618
 20
36.588809
 30
0.0
 10
26.747285
 20
36.504142
 30
0.0
 10
26.747285
 20
30.894976
 30
0.0
 10
26.662618
 20
30.789142
 30
0.0
 10
26.048785
 20
30.789142
 30
0.0
 10
25.964118
 20
30.704476
 30
0.0
 10
25.964118
 20
27.698809
 30
0.0
 10
26.747285
 20
27.698809
 30
0.0
 10
26.747285
 20
26.703976
 30
0.0
  0
LWPOLYLINE
  5
107
100
AcDbEntity
  8
Qwiic_Keyboard_Explorer
 62
1
100
AcDbPolyline
 90
28
 70
1
 10
59.809616
 20
26.703976
 30
0.0
 10
59.809616
 20
27.698809
 30
0.0
 10
60.613950
 20
27.698809
 30
0.0
 10
60.613950
 20
30.704476
 30
0.0
 10
60.508116
 20
30.789142
 30
0.0
 10
59.915450
 20
30.789142
 30
0.0
 10
59.809616
 20
30.894976
 30
0.0
 10
59.809616
 20
36.504142
 30
0.0
 10
59.915450
 20
36.588809
 30
0.0
 10
60.508116
 20
36.588809
 30
0.0
 10
60.613950
 20
36.694642
 30
0.0
 10
60.613950
 20
39.700309
 30
0.0
 10
59.809616
 20
39.700309
 30
0.0
 10
59.809616
 20
40.695142
 30
0.0
 10
45.818450
 20
40.695142
 30
0.0
 10
45.818450
 20
39.700309
 30
0.0
 10
45.014117
 20
39.700309
 30
0.0
 10
45.014117
 20
36.694642
 30
0.0
 10
45.119950
 20
36.588809
 30
0.0
 10
45.712617
 20
36.588809
 30
0.0
 10
45.818450
 20
36.504142
 30
0.0
 10
45.818450
 20
30.894976
 30
0.0
 10
45.712617
 20
30.789142
 30
0.0
 10
45.119950
 20
30.789142
 30
0.0
 10
45.014117
 20
30.704476
 30
0.0
 10
45.014117
 20
27.698809
 30
0.0
 10
45.818450
 20
27.698809
 30
0.0
 10
45.818450
 20
26.703976
 30
0.0
  0
LWPOLYLINE
  5
108
100
AcDbEntity
  8
Qwiic_Keyboard_Explorer
 62
1
100
AcDbPolyline
 90
28
 70
1
 10
78.859616
 20
26.703976
 30
0.0
 10
78.859616
 20
27.698809
 30
0.0
 10
79.663949
 20
27.698809
 30
0.0
 10
79.663949
 20
30.704476
 30
0.0
 10
79.558116
 20
30.789142
 30
0.0
 10
78.965449
 20
30.789142
 30
0.0
 10
78.859616
 20
30.894976
 30
0.0
 10
78.859616
 20
36.504142
 30
0.0
 10
78.965449
 20
36.588809
 30
0.0
 10
79.558116
 20
36.588809
 30
0.0
 10
79.663949
 20
36.694642
 30
0.0
 10
79.663949
 20
39.700309
 30
0.0
 10
78.859616
 20
39.700309
 30
0.0
 10
78.859616
 20
40.695142
 30
0.0
 10
64.868450
 20
40.695142
 30
0.0
 10
64.868450
 20
39.700309
 30
0.0
 10
64.064116
 20
39.700309
 30
0.0
 10
64.064116
 20
36.694642
 30
0.0
 10
64.169950
 20
36.588809
 30
0.0
 10
64.762616
 20
36.588809
 30
0.0
 10
64.868450
 20
36.504142
 30
0.0
 10
64.868450
 20
30.894976
 30
0.0
 10
64.762616
 20
30.789142
 30
0.0
 10
64.169950
 20
30.789142
 30
0.0
 10
64.064116
 20
30.704476
 30
0.0
 10
64.064116
 20
27.698809
 30
0.0
 10
64.868450
 20
27.698809
 30
0.0
 10
64.868450
 20
26.703976
 30
0.0
  0
LWPOLYLINE
  5
109
100
AcDbEntity
  8
Qwiic_Keyboard_Explorer
 62
1
100
AcDbPolyline
 90
28
 70
1
 10
21.688451
 20
7.653976
 30
0.0
 10
21.688451
 20
8.648810
 30
0.0
 10
22.492785
 20
8.648810
 30
0.0
 10
22.492785
 20
11.654476
 30
0.0
 10
22.386951
 20
11.739143
 30
0.0
 10
21.794285
 20
11.739143
 30
0.0
 10
21.688451
 20
11.844976
 30
0.0
 10
21.688451
 20
17.454143
 30
0.0
 10
21.794285
 20
17.538809
 30
0.0
 10
22.386951
 20
17.538809
 30
0.0
 10
22.492785
 20
17.644643
 30
0.0
 10
22.492785
 20
20.650309
 30
0.0
 10
21.688451
 20
20.650309
 30
0.0
 10
21.688451
 20
21.645143
 30
0.0
 10
7.697285
 20
21.645143
 30
0.0
 10
7.697285
 20
20.650309
 30
0.0
 10
6.892952
 20
20.650309
 30
0.0
 10
6.892952
 20
17.644643
 30
0.0
 10
6.998785
 20
17.538809
 30
0.0
 10
7.591452
 20
17.538809
 30
0.0
 10
7.697285
 20
17.454143
 30
0.0
 10
7.697285
 20
11.844976
 30
0.0
 10
7.591452
 20
11.739143
 30
0.0
 10
6.998785
 20
11.739143
 30
0.0
 10
6.892952
 20
11.654476
 30
0.0
 10
6.892952
 20
8.648810
 30
0.0
 10
7.697285
 20
8.648810
 30
0.0
 10
7.697285
 20
7.653976
 30
0.0
  0
LWPOLYLINE
  5
10a
100
AcDbEntity
  8
Qwiic_Keyboard_Explorer
 62
1
100
AcDbPolyline
 90
28
 70
1
 10
40.759617
 20
7.653976
 30
0.0
 10
40.759617
 20
8.648810
 30
0.0
 10
41.542783
 20
8.648810
 30
0.0
 10
41.542783
 20
11.654476
 30
0.0
 10
41.458117
 20
11.739143
 30
0.0
 10
40.844283
 20
11.739143
 30
0.0
 10
40.759617
 20
11.844976
 30
0.0
 10
40.759617
 20
17.454143
 30
0.0
 10
40.844283
 20
17.538809
 30
0.0
 10
41.458117
 20
17.538809
 30
0.0
 10
41.542783
 20
17.644643
 30
0.0
 10
41.542783
 20
20.650309
 30
0.0
 10
40.759617
 20
20.650309
 30
0.0
 10
40.759617
 20
21.645143
 30
0.0
 10
26.747285
 20
21.645143
 30
0.0
 10
26.747285
 20
20.650309
 30
0.0
 10
25.964118
 20
20.650309
 30
0.0
 10
25.964118
 20
17.644643
 30
0.0
 10
26.048785
 20
17.538809
 30
0.0
 10
26.662618
 20
17.538809
 30
0.0
 10
26.747285
 20
17.454143
 30
0.0
 10
26.747285
 20
11.844976
 30
0.0
 10
26.662618
 20
11.739143
 30
0.0
 10
26.048785
 20
11.739143
 30
0.0
 10
25.964118
 20
11.654476
 30
0.0
 10
25.964118
 20
8.648810
 30
0.0
 10
26.747285
 20
8.648810
 30
0.0
 10
26.747285
 20
7.653976
 30
0.0
  0
LWPOLYLINE
  5
10b
100
AcDbEntity
  8
Qwiic_Keyboard_Explorer
 62
1
100
AcDbPolyline
 90
28
 70
1
 10
59.809616
 20
7.653976
 30
0.0
 10
59.809616
 20
8.648810
 30
0.0
 10
60.613950
 20
8.648810
 30
0.0
 10
60.613950
 20
11.654476
 30
0.0
 10
60.508116
 20
11.739143
 30
0.0
 10
59.915450
 20
11.739143
 30
0.0
 10
59.809616
 20
11.844976
 30
0.0
 10
59.809616
 20
17.454143
 30
0.0
 10
59.915450
 20
17.538809
 30
0.0
 10
60.508116
 20
17.538809
 30
0.0
 10
60.613950
 20
17.644643
 30
0.0
 10
60.613950
 20
20.650309
 30
0.0
 10
59.809616
 20
20.650309
 30
0.0
 10
59.809616
 20
21.645143
 30
0.0
 10
45.818450
 20
21.645143
 30
0.0
 10
45.818450
 20
20.650309
 30
0.0
 10
45.014117
 20
20.650309
 30
0.0
 10
45.014117
 20
17.644643
 30
0.0
 10
45.119950
 20
17.538809
 30
0.0
 10
45.712617
 20
17.538809
 30
0.0
 10
45.818450
 20
17.454143
 30
0.0
 10
45.818450
 20
11.844976
 30
0.0
 10
45.712617
 20
11.739143
 30
0.0
 10
45.119950
 20
11.739143
 30
0.0
 10
45.014117
 20
11.654476
 30
0.0
 10
45.014117
 20
8.648810
 30
0.0
 10
45.818450
 20
8.648810
 30
0.0
 10
45.818450
 20
7.653976
 30
0.0
  0
LWPOLYLINE
  5
10c
100
AcDbEntity
  8
Qwiic_Keyboard_Explorer
 62
1
100
AcDbPolyline
 90
28
 70
1
 10
78.859616
 20
7.653976
 30
0.0
 10
78.859616
 20
8.648810
 30
0.0
 10
79.663949
 20
8.648810
 30
0.0
 10
79.663949
 20
11.654476
 30
0.0
 10
79.558116
 20
11.739143
 30
0.0
 10
78.965449
 20
11.739143
 30
0.0
 10
78.859616
 20
11.844976
 30
0.0
 10
78.859616
 20
17.454143
 30
0.0
 10
78.965449
 20
17.538809
 30
0.0
 10
79.558116
 20
17.538809
 30
0.0
 10
79.663949
 20
17.644643
 30
0.0
 10
79.663949
 20
20.650309
 30
0.0
 10
78.859616
 20
20.650309
 30
0.0
 10
78.859616
 20
21.645143
 30
0.0
 10
64.868450
 20
21.645143
 30
0.0
 10
64.868450
 20
20.650309
 30
0.0
 10
64.064116
 20
20.650309
 30
0.0
 10
64.064116
 20
17.644643
 30
0.0
 10
64.169950
 20
17.538809
 30
0.0
 10
64.762616
 20
17.538809
 30
0.0
 10
64.868450
 20
17.454143
 30
0.0
 10
64.868450
 20
11.844976
 30
0.0
 10
64.762616
 20
11.739143
 30
0.0
 10
64.169950
 20
11.739143
 30
0.0
 10
64.064116
 20
11.654476
 30
0.0
 10
64.064116
 20
8.648810
 30
0.0
 10
64.868450
 20
8.648810
 30
0.0
 10
64.868450
 20
7.653976
 30
0.0
  0
LWPOLYLINE
  5
10d
100
AcDbEntity
  8
Qwiic_Keyboard_Explorer
 62
1
100
AcDbPolyline
 90
28
 70
1
 10
97.867282
 20
26.703976
 30
0.0
 10
97.867282
 20
27.698809
 30
0.0
 10
98.671615
 20
27.698809
 30
0.0
 10
98.671615
 20
30.704476
 30
0.0
 10
98.586949
 20
30.789142
 30
0.0
 10
97.973115
 20
30.789142
 30
0.0
 10
97.867282
 20
30.894976
 30
0.0
 10
97.867282
 20
36.504142
 30
0.0
 10
97.973115
 20
36.588809
 30
0.0
 10
98.586949
 20
36.588809
 30
0.0
 10
98.671615
 20
36.694642
 30
0.0
 10
98.671615
 20
39.700309
 30
0.0
 10
97.867282
 20
39.700309
 30
0.0
 10
97.867282
 20
40.695142
 30
0.0
 10
83.876116
 20
40.695142
 30
0.0
 10
83.876116
 20
39.700309
 30
0.0
 10
83.071782
 20
39.700309
 30
0.0
 10
83.071782
 20
36.694642
 30
0.0
 10
83.177616
 20
36.588809
 30
0.0
 10
83.770282
 20
36.588809
 30
0.0
 10
83.876116
 20
36.504142
 30
0.0
 10
83.876116
 20
30.894976
 30
0.0
 10
83.770282
 20
30.789142
 30
0.0
 10
83.177616
 20
30.789142
 30
0.0
 10
83.071782
 20
30.704476
 30
0.0
 10
83.071782
 20
27.698809
 30
0.0
 10
83.876116
 20
27.698809
 30
0.0
 10
83.876116
 20
26.703976
 30
0.0
  0
LWPOLYLINE
  5
10e
100
AcDbEntity
  8
Qwiic_Keyboard_Explorer
 62
1
100
AcDbPolyline
 90
28
 70
1
 10
97.867282
 20
7.653976
 30
0.0
 10
97.867282
 20
8.669976
 30
0.0
 10
98.671615
 20
8.669976
 30
0.0
 10
98.671615
 20
11.654476
 30
0.0
 10
98.586949
 20
11.760309
 30
0.0
 10
97.973115
 20
11.760309
 30
0.0
 10
97.867282
 20
11.866143
 30
0.0
 10
97.867282
 20
17.454143
 30
0.0
 10
97.973115
 20
17.559976
 30
0.0
 10
98.586949
 20
17.559976
 30
0.0
 10
98.671615
 20
17.665809
 30
0.0
 10
98.671615
 20
20.650309
 30
0.0
 10
97.867282
 20
20.650309
 30
0.0
 10
97.867282
 20
21.645143
 30
0.0
 10
83.876116
 20
21.645143
 30
0.0
 10
83.876116
 20
20.650309
 30
0.0
 10
83.071782
 20
20.650309
 30
0.0
 10
83.071782
 20
17.665809
 30
0.0
 10
83.177616
 20
17.559976
 30
0.0
 10
83.770282
 20
17.559976
 30
0.0
 10
83.876116
 20
17.454143
 30
0.0
 10
83.876116
 20
11.866143
 30
0.0
 10
83.770282
 20
11.760309
 30
0.0
 10
83.177616
 20
11.760309
 30
0.0
 10
83.071782
 20
11.654476
 30
0.0
 10
83.071782
 20
8.669976
 30
0.0
 10
83.876116
 20
8.669976
 30
0.0
 10
83.876116
 20
7.653976
 30
0.0
  0
LWPOLYLINE
  5
10f
100
AcDbEntity
  8
Qwiic_Keyboard_Explorer
 62
1
100
AcDbPolyline
 90
28
 70
1
 10
116.917282
 20
26.703976
 30
0.0
 10
116.917282
 20
27.698809
 30
0.0
 10
117.721615
 20
27.698809
 30
0.0
 10
117.721615
 20
30.704476
 30
0.0
 10
117.615782
 20
30.789142
 30
0.0
 10
117.023115
 20
30.789142
 30
0.0
 10
116.917282
 20
30.894976
 30
0.0
 10
116.917282
 20
36.504142
 30
0.0
 10
117.023115
 20
36.588809
 30
0.0
 10
117.615782
 20
36.588809
 30
0.0
 10
117.721615
 20
36.694642
 30
0.0
 10
117.721615
 20
39.700309
 30
0.0
 10
116.917282
 20
39.700309
 30
0.0
 10
116.917282
 20
40.695142
 30
0.0
 10
102.926115
 20
40.695142
 30
0.0
 10
102.926115
 20
39.700309
 30
0.0
 10
102.121782
 20
39.700309
 30
0.0
 10
102.121782
 20
36.694642
 30
0.0
 10
102.227615
 20
36.588809
 30
0.0
 10
102.820282
 20
36.588809
 30
0.0
 10
102.926115
 20
36.504142
 30
0.0
 10
102.926115
 20
30.894976
 30
0.0
 10
102.820282
 20
30.789142
 30
0.0
 10
102.227615
 20
30.789142
 30
0.0
 10
102.121782
 20
30.704476
 30
0.0
 10
102.121782
 20
27.698809
 30
0.0
 10
102.926115
 20
27.698809
 30
0.0
 10
102.926115
 20
26.703976
 30
0.0
  0
LWPOLYLINE
  5
110
100
AcDbEntity
  8
Qwiic_Keyboard_Explorer
 62
1
100
AcDbPolyline
 90
28
 70
1
 10
116.917282
 20
7.653976
 30
0.0
 10
116.917282
 20
8.669976
 30
0.0
 10
117.721615
 20
8.669976
 30
0.0
 10
117.721615
 20
11.654476
 30
0.0
 10
117.615782
 20
11.760309
 30
0.0
 10
117.023115
 20
11.760309
 30
0.0
 10
116.917282
 20
11.866143
 30
0.0
 10
116.917282
 20
17.454143
 30
0.0
 10
117.023115
 20
17.559976
 30
0.0
 10
117.615782
 20
17.559976
 30
0.0
 10
117.721615
 20
17.665809
 30
0.0
 10
117.721615
 20
20.650309
 30
0.0
 10
116.917282
 20
20.650309
 30
0.0
 10
116.917282
 20
21.645143
 30
0.0
 10
102.926115
 20
21.645143
 30
0.0
 10
102.926115
 20
20.650309
 30
0.0
 10
102.121782
 20
20.650309
 30
0.0
 10
102.121782
 20
17.665809
 30
0.0
 10
102.227615
 20
17.559976
 30
0.0
 10
102.820282
 20
17.559976
 30
0.0
 10
102.926115
 20
17.454143
 30
0.0
 10
102.926115
 20
11.866143
 30
0.0
 10
102.820282
 20
11.760309
 30
0.0
 10
102.227615
 20
11.760309
 30
0.0
 10
102.121782
 20
11.654476
 30
0.0
 10
102.121782
 20
8.669976
 30
0.0
 10
102.926115
 20
8.669976
 30
0.0
 10
102.926115
 20
7.653976
 30
0.0
  0
LWPOLYLINE
  5
111
100
AcDbEntity
  8
Qwiic_Keyboard_Explorer
 62
1
100
AcDbPolyline
 90
28
 70
1
 10
135.967281
 20
26.703976
 30
0.0
 10
135.967281
 20
27.698809
 30
0.0
 10
136.771614
 20
27.698809
 30
0.0
 10
136.771614
 20
30.704476
 30
0.0
 10
136.665781
 20
30.789142
 30
0.0
 10
136.073114
 20
30.789142
 30
0.0
 10
135.967281
 20
30.894976
 30
0.0
 10
135.967281
 20
36.504142
 30
0.0
 10
136.073114
 20
36.588809
 30
0.0
 10
136.665781
 20
36.588809
 30
0.0
 10
136.771614
 20
36.694642
 30
0.0
 10
136.771614
 20
39.700309
 30
0.0
 10
135.967281
 20
39.700309
 30
0.0
 10
135.967281
 20
40.695142
 30
0.0
 10
121.976115
 20
40.695142
 30
0.0
 10
121.976115
 20
39.700309
 30
0.0
 10
121.171781
 20
39.700309
 30
0.0
 10
121.171781
 20
36.694642
 30
0.0
 10
121.277615
 20
36.588809
 30
0.0
 10
121.870281
 20
36.588809
 30
0.0
 10
121.976115
 20
36.504142
 30
0.0
 10
121.976115
 20
30.894976
 30
0.0
 10
121.870281
 20
30.789142
 30
0.0
 10
121.277615
 20
30.789142
 30
0.0
 10
121.171781
 20
30.704476
 30
0.0
 10
121.171781
 20
27.698809
 30
0.0
 10
121.976115
 20
27.698809
 30
0.0
 10
121.976115
 20
26.703976
 30
0.0
  0
LWPOLYLINE
  5
112
100
AcDbEntity
  8
Qwiic_Keyboard_Explorer
 62
1
100
AcDbPolyline
 90
28
 70
1
 10
135.967281
 20
7.653976
 30
0.0
 10
135.967281
 20
8.669976
 30
0.0
 10
136.771614
 20
8.669976
 30
0.0
 10
136.771614
 20
11.654476
 30
0.0
 10
136.665781
 20
11.760309
 30
0.0
 10
136.073114
 20
11.760309
 30
0.0
 10
135.967281
 20
11.866143
 30
0.0
 10
135.967281
 20
17.454143
 30
0.0
 10
136.073114
 20
17.559976
 30
0.0
 10
136.665781
 20
17.559976
 30
0.0
 10
136.771614
 20
17.665809
 30
0.0
 10
136.771614
 20
20.650309
 30
0.0
 10
135.967281
 20
20.650309
 30
0.0
 10
135.967281
 20
21.645143
 30
0.0
 10
121.976115
 20
21.645143
 30
0.0
 10
121.976115
 20
20.650309
 30
0.0
 10
121.171781
 20
20.650309
 30
0.0
 10
121.171781
 20
17.665809
 30
0.0
 10
121.277615
 20
17.559976
 30
0.0
 10
121.870281
 20
17.559976
 30
0.0
 10
121.976115
 20
17.454143
 30
0.0
 10
121.976115
 20
11.866143
 30
0.0
 10
121.870281
 20
11.760309
 30
0.0
 10
121.277615
 20
11.760309
 30
0.0
 10
121.171781
 20
11.654476
 30
0.0
 10
121.171781
 20
8.669976
 30
0.0
 10
121.976115
 20
8.669976
 30
0.0
 10
121.976115
 20
7.653976
 30
0.0
  0
ENDSEC
  0
SECTION
  2
OBJECTS
  0
DICTIONARY
  5
C
330
0
100
AcDbDictionary
  3
ACAD_GROUP
350
D
  3
ACAD_MLINESTYLE
350
17
  0
DICTIONARY
  5
D
330
C
100
AcDbDictionary
  0
DICTIONARY
  5
1A
330
C
100
AcDbDictionary
  0
DICTIONARY
  5
17
330
C
100
AcDbDictionary
  3
STANDARD
350
18
  0
DICTIONARY
  5
19
330
C
100
AcDbDictionary
  0
ENDSEC
  0
EOF
